<svg width="494" height="309" viewBox="0 0 494 309" fill="none" xmlns="http://www.w3.org/2000/svg">
<rect x="1" y="1" width="492" height="307" rx="3" fill="#FDFDFD"/>
<path d="M209.328 195.594C209.328 195.948 209.469 196.245 209.75 196.484C210.042 196.724 210.432 196.844 210.922 196.844C211.589 196.844 212.156 196.63 212.625 196.203C213.094 195.766 213.328 195.198 213.328 194.5V193.547C212.849 193.661 212.219 193.781 211.438 193.906C210.729 194.021 210.198 194.214 209.844 194.484C209.5 194.755 209.328 195.125 209.328 195.594ZM207.578 195.734C207.578 194.089 208.823 193.073 211.312 192.688C212.344 192.531 213.016 192.401 213.328 192.297V191.812C213.328 191.344 213.156 190.974 212.812 190.703C212.479 190.422 212.026 190.281 211.453 190.281C210.443 190.281 209.583 190.693 208.875 191.516L207.812 190.609C208.26 190.078 208.797 189.661 209.422 189.359C210.057 189.057 210.724 188.906 211.422 188.906C213.839 188.906 215.047 190.094 215.047 192.469V198H213.375V196.781C213.198 197.188 212.865 197.542 212.375 197.844C211.885 198.135 211.318 198.281 210.672 198.281C209.714 198.281 208.958 198.047 208.406 197.578C207.854 197.099 207.578 196.484 207.578 195.734ZM216.672 193.578C216.672 192.13 217.021 190.99 217.719 190.156C218.427 189.323 219.323 188.906 220.406 188.906C220.958 188.906 221.443 189.052 221.859 189.344C222.276 189.635 222.583 189.969 222.781 190.344V185.438H224.5V198H222.828V196.719C222.63 197.156 222.312 197.526 221.875 197.828C221.448 198.13 220.958 198.281 220.406 198.281C219.948 198.281 219.505 198.193 219.078 198.016C218.661 197.839 218.266 197.573 217.891 197.219C217.526 196.865 217.229 196.375 217 195.75C216.781 195.115 216.672 194.391 216.672 193.578ZM218.422 193.578C218.422 194.589 218.625 195.385 219.031 195.969C219.448 196.542 219.984 196.828 220.641 196.828C221.266 196.828 221.781 196.536 222.188 195.953C222.604 195.37 222.812 194.578 222.812 193.578C222.812 192.609 222.609 191.833 222.203 191.25C221.797 190.667 221.276 190.375 220.641 190.375C219.953 190.375 219.411 190.667 219.016 191.25C218.62 191.833 218.422 192.609 218.422 193.578ZM226.328 193.578C226.328 192.13 226.677 190.99 227.375 190.156C228.083 189.323 228.979 188.906 230.062 188.906C230.615 188.906 231.099 189.052 231.516 189.344C231.932 189.635 232.24 189.969 232.438 190.344V185.438H234.156V198H232.484V196.719C232.286 197.156 231.969 197.526 231.531 197.828C231.104 198.13 230.615 198.281 230.062 198.281C229.604 198.281 229.161 198.193 228.734 198.016C228.318 197.839 227.922 197.573 227.547 197.219C227.182 196.865 226.885 196.375 226.656 195.75C226.438 195.115 226.328 194.391 226.328 193.578ZM228.078 193.578C228.078 194.589 228.281 195.385 228.688 195.969C229.104 196.542 229.641 196.828 230.297 196.828C230.922 196.828 231.438 196.536 231.844 195.953C232.26 195.37 232.469 194.578 232.469 193.578C232.469 192.609 232.266 191.833 231.859 191.25C231.453 190.667 230.932 190.375 230.297 190.375C229.609 190.375 229.068 190.667 228.672 191.25C228.276 191.833 228.078 192.609 228.078 193.578ZM240.531 187.656V185.688H242.453V187.656H240.531ZM240.656 198V189.188H242.359V198H240.656ZM244.844 198V189.188H246.516V190.312C246.672 189.979 246.953 189.661 247.359 189.359C247.766 189.057 248.26 188.906 248.844 188.906C249.844 188.906 250.568 189.474 251.016 190.609C251.078 190.474 251.167 190.328 251.281 190.172C251.406 190.005 251.573 189.823 251.781 189.625C252 189.417 252.276 189.245 252.609 189.109C252.953 188.974 253.328 188.906 253.734 188.906C255.516 188.906 256.406 190.047 256.406 192.328V198H254.656V192.406C254.656 191.729 254.562 191.224 254.375 190.891C254.198 190.547 253.859 190.375 253.359 190.375C252.807 190.375 252.354 190.604 252 191.062C251.646 191.521 251.469 192.094 251.469 192.781V198H249.766V192.359C249.766 191.036 249.323 190.375 248.438 190.375C247.854 190.375 247.396 190.594 247.062 191.031C246.74 191.458 246.578 192.026 246.578 192.734V198H244.844ZM259.75 195.594C259.75 195.948 259.891 196.245 260.172 196.484C260.464 196.724 260.854 196.844 261.344 196.844C262.01 196.844 262.578 196.63 263.047 196.203C263.516 195.766 263.75 195.198 263.75 194.5V193.547C263.271 193.661 262.641 193.781 261.859 193.906C261.151 194.021 260.62 194.214 260.266 194.484C259.922 194.755 259.75 195.125 259.75 195.594ZM258 195.734C258 194.089 259.245 193.073 261.734 192.688C262.766 192.531 263.438 192.401 263.75 192.297V191.812C263.75 191.344 263.578 190.974 263.234 190.703C262.901 190.422 262.448 190.281 261.875 190.281C260.865 190.281 260.005 190.693 259.297 191.516L258.234 190.609C258.682 190.078 259.219 189.661 259.844 189.359C260.479 189.057 261.146 188.906 261.844 188.906C264.26 188.906 265.469 190.094 265.469 192.469V198H263.797V196.781C263.62 197.188 263.286 197.542 262.797 197.844C262.307 198.135 261.74 198.281 261.094 198.281C260.135 198.281 259.38 198.047 258.828 197.578C258.276 197.099 258 196.484 258 195.734ZM268.875 193.422C268.875 194.37 269.062 195.115 269.438 195.656C269.823 196.198 270.333 196.469 270.969 196.469C271.604 196.469 272.109 196.208 272.484 195.688C272.859 195.156 273.047 194.401 273.047 193.422C273.047 192.464 272.854 191.719 272.469 191.188C272.094 190.646 271.604 190.375 271 190.375C270.354 190.375 269.839 190.656 269.453 191.219C269.068 191.771 268.875 192.505 268.875 193.422ZM267.125 193.438C267.125 192.062 267.464 190.964 268.141 190.141C268.828 189.318 269.703 188.906 270.766 188.906C271.349 188.906 271.833 189.057 272.219 189.359C272.615 189.651 272.896 189.979 273.062 190.344V189.188H274.766V196.844C274.766 198.51 274.448 199.74 273.812 200.531C273.188 201.333 272.208 201.734 270.875 201.734C269.406 201.734 268.276 201.182 267.484 200.078L268.641 199.281C269.276 200 270.036 200.359 270.922 200.359C271.547 200.359 272.052 200.115 272.438 199.625C272.823 199.135 273.026 198.495 273.047 197.703C273.047 197.578 273.047 197.391 273.047 197.141C273.057 196.891 273.062 196.719 273.062 196.625C272.854 197.01 272.552 197.328 272.156 197.578C271.76 197.818 271.318 197.938 270.828 197.938C269.714 197.938 268.818 197.526 268.141 196.703C267.464 195.87 267.125 194.781 267.125 193.438ZM276.5 193.547C276.5 192.151 276.88 191.031 277.641 190.188C278.411 189.333 279.385 188.906 280.562 188.906C281.74 188.906 282.693 189.328 283.422 190.172C284.161 191.016 284.531 192.104 284.531 193.438C284.531 193.458 284.516 193.703 284.484 194.172H278.234C278.234 194.911 278.448 195.547 278.875 196.078C279.302 196.609 279.896 196.875 280.656 196.875C281.167 196.875 281.62 196.75 282.016 196.5C282.411 196.25 282.714 195.927 282.922 195.531L284.359 196.016C284.078 196.672 283.62 197.214 282.984 197.641C282.359 198.068 281.578 198.281 280.641 198.281C279.411 198.281 278.411 197.854 277.641 197C276.88 196.135 276.5 194.984 276.5 193.547ZM278.266 192.938H282.781C282.781 192.198 282.583 191.573 282.188 191.062C281.792 190.552 281.25 190.297 280.562 190.297C279.865 190.297 279.312 190.557 278.906 191.078C278.5 191.599 278.286 192.219 278.266 192.938Z" fill="#D7D7D7"/>
<rect x="246" y="125" width="2" height="24" fill="#D9D9D9"/>
<rect x="259" y="136" width="2" height="24" transform="rotate(90 259 136)" fill="#D9D9D9"/>
<rect x="218" y="108" width="58" height="58" rx="3" stroke="#D7D7D7" stroke-width="2"/>
<rect x="1" y="1" width="492" height="307" rx="3" stroke="#D7D7D7" stroke-width="2" stroke-dasharray="4 4"/>
</svg>
